<svg width="200" height="200" viewBox="0 0 200 200" fill="none" xmlns="http://www.w3.org/2000/svg">
  <!-- Base de la prensa -->
  <rect x="20" y="140" width="160" height="40" rx="4" fill="#D2B48C" stroke="#8B7355" stroke-width="2"/>
  
  <!-- Caja principal -->
  <rect x="40" y="80" width="120" height="60" rx="6" fill="#DEB887" stroke="#8B7355" stroke-width="2"/>
  
  <!-- Tapa superior con agujero -->
  <rect x="40" y="60" width="120" height="20" rx="4" fill="#D2B48C" stroke="#8B7355" stroke-width="2"/>
  <ellipse cx="100" cy="70" rx="25" ry="12" fill="#8B7355"/>
  
  <!-- Manija vertical -->
  <rect x="95" y="20" width="10" height="50" rx="2" fill="#8B7355"/>
  
  <!-- Manija horizontal superior -->
  <rect x="75" y="15" width="50" height="8" rx="4" fill="#8B7355"/>
  
  <!-- Detalles de tornillos -->
  <circle cx="50" cy="90" r="2" fill="#654321"/>
  <circle cx="150" cy="90" r="2" fill="#654321"/>
  <circle cx="50" cy="120" r="2" fill="#654321"/>
  <circle cx="150" cy="120" r="2" fill="#654321"/>
  
  <!-- Vetas de madera -->
  <path d="M45 85 Q100 88 155 85" stroke="#8B7355" stroke-width="1" fill="none" opacity="0.5"/>
  <path d="M45 100 Q100 103 155 100" stroke="#8B7355" stroke-width="1" fill="none" opacity="0.5"/>
  <path d="M45 115 Q100 118 155 115" stroke="#8B7355" stroke-width="1" fill="none" opacity="0.5"/>
  
  <!-- Sombra -->
  <ellipse cx="100" cy="185" rx="80" ry="8" fill="#000000" opacity="0.1"/>
</svg>